HIERARCHY
ROOT Hips
{
	OFFSET 0.000000 0.000000 0.000000
	CHANNELS 6 Xposition Yposition Zposition Zrotation Yrotation Xrotation 
	JOINT LeftUpLeg_virtual
	{
		OFFSET 0.000000 0.000000 0.000000
		CHANNELS 3 Zrotation Yrotation Xrotation
		JOINT LeftUpLeg
		{
			OFFSET 8.479694 -4.795517 -0.379053
			CHANNELS 3 Zrotation Yrotation Xrotation
			JOINT LeftLeg
			{
				OFFSET 0.485052 -32.551468 0.112863
				CHANNELS 3 Zrotation Yrotation Xrotation
				JOINT LeftFoot
				{
					OFFSET 0.438033 -32.635670 -3.012641
					CHANNELS 3 Zrotation Yrotation Xrotation
					JOINT LeftToeBase
					{
						OFFSET 0.970169 -13.225353 11.864223
						CHANNELS 3 Zrotation Yrotation Xrotation
						End Site
						{
							OFFSET 0.000000 0.000000 0.000000
						}
					}
				}
			}
		}
	}
	JOINT RightUpLeg_virtual
	{
		OFFSET 0.000000 0.000000 0.000000
		CHANNELS 3 Zrotation Yrotation Xrotation
		JOINT RightUpLeg
		{
			OFFSET -8.479694 -4.795517 -0.379053
			CHANNELS 3 Zrotation Yrotation Xrotation
			JOINT RightLeg
			{
				OFFSET -0.484100 -32.551483 0.112903
				CHANNELS 3 Zrotation Yrotation Xrotation
				JOINT RightFoot
				{
					OFFSET -0.438985 -32.635651 -3.012681
					CHANNELS 3 Zrotation Yrotation Xrotation
					JOINT RightToeBase
					{
						OFFSET -0.970169 -13.225354 11.864223
						CHANNELS 3 Zrotation Yrotation Xrotation
						End Site
						{
							OFFSET 0.000000 0.000000 0.000000
						}
					}
				}
			}
		}
	}
	JOINT Spine_virtual
	{
		OFFSET 0.000000 0.000000 0.000000
		CHANNELS 3 Zrotation Yrotation Xrotation
		JOINT Spine
		{
			OFFSET 0.000000 7.722015 1.166203
			CHANNELS 3 Zrotation Yrotation Xrotation
			JOINT Spine1
			{
				OFFSET 0.000000 12.024086 0.248766
				CHANNELS 3 Zrotation Yrotation Xrotation
				JOINT Spine2
				{
					OFFSET -0.000000 11.503036 -0.491240
					CHANNELS 3 Zrotation Yrotation Xrotation
					JOINT Neck_virtual
					{
						OFFSET 0.000000 0.000000 0.000000
						CHANNELS 3 Zrotation Yrotation Xrotation
						JOINT Neck
						{
							OFFSET 0.000000 18.430687 -3.123054
							CHANNELS 3 Zrotation Yrotation Xrotation
							JOINT Head
							{
								OFFSET -0.000000 9.051071 1.034021
								CHANNELS 3 Zrotation Yrotation Xrotation
								End Site
								{
									OFFSET 0.000000 0.000000 0.000000
								}
							}
						}
					}
					JOINT LeftShoulder_virtual
					{
						OFFSET 0.000000 0.000000 0.000000
						CHANNELS 3 Zrotation Yrotation Xrotation
						JOINT LeftShoulder
						{
							OFFSET 6.197824 13.665230 -4.064723
							CHANNELS 3 Zrotation Yrotation Xrotation
							JOINT LeftArm
							{
								OFFSET 7.778132 -0.187073 -1.709282
								CHANNELS 3 Zrotation Yrotation Xrotation
								JOINT LeftForeArm
								{
									OFFSET 21.954697 0.000000 -2.041093
									CHANNELS 3 Zrotation Yrotation Xrotation
									JOINT LeftHand
									{
										OFFSET 22.992908 0.000000 -0.870901
										CHANNELS 3 Zrotation Yrotation Xrotation
										End Site
										{
											OFFSET 0.000000 0.000000 0.000000
										}
									}
								}
							}
						}
					}
					JOINT RightShoulder_virtual
					{
						OFFSET 0.000000 0.000000 0.000000
						CHANNELS 3 Zrotation Yrotation Xrotation
						JOINT RightShoulder
						{
							OFFSET -6.197824 13.665230 -4.064723
							CHANNELS 3 Zrotation Yrotation Xrotation
							JOINT RightArm
							{
								OFFSET -7.778132 -0.187073 -1.709282
								CHANNELS 3 Zrotation Yrotation Xrotation
								JOINT RightForeArm
								{
									OFFSET -21.954697 0.000000 -2.041093
									CHANNELS 3 Zrotation Yrotation Xrotation
									JOINT RightHand
									{
										OFFSET -22.992908 0.000000 -0.870901
										CHANNELS 3 Zrotation Yrotation Xrotation
										End Site
										{
											OFFSET 0.000000 0.000000 0.000000
										}
									}
								}
							}
						}
					}
				}
			}
		}
	}
}
MOTION
Frames: 9
Frame Time: 0.033333
-1.767025 81.669426 4.850776 179.948792 -0.240179 179.646502 -4.549532 0.836121 13.743243 6.277124 -7.340456 -20.088000 2.954905 0.028684 24.436983 3.367934 -6.669926 -12.894871 0.000000 0.000000 0.000000 -0.845406 -0.119639 13.945725 -3.283654 1.501993 -20.342801 -1.684355 4.493478 25.244331 8.925816 2.901164 -10.950545 0.000000 0.000000 0.000000 0.413303 2.842011 3.186656 -4.332792 -0.457716 -4.274533 -0.439468 -2.342343 4.434152 0.053106 -0.067109 -0.117918 -0.836817 -1.261504 4.225151 -0.547051 1.813987 -15.550065 0.000000 0.000000 0.000000 0.796783 -0.420834 1.756090 13.803842 5.865480 -4.474826 -8.941490 0.762932 -40.247224 2.402876 -33.338222 -5.051298 0.000000 0.000000 0.000000 -3.352714 0.755063 1.084915 3.580336 -11.169324 -1.831147 14.664420 -9.306231 -50.408794 -1.249576 29.722589 -4.946426 0.000000 0.000000 0.000000 
-1.788949 81.669342 4.869561 179.849522 -0.043112 179.422963 -4.635582 0.457710 13.458881 6.385893 -7.679344 -20.526281 3.148774 -0.365717 24.185225 3.381949 -6.827177 -13.144766 0.000000 0.000000 0.000000 -0.892262 -0.108340 13.849682 -3.345191 1.371269 -20.509255 -1.935205 3.880347 25.060481 8.538318 2.463978 -11.171006 0.000000 0.000000 0.000000 0.368737 2.832943 3.346322 -4.365556 -0.467507 -4.171588 -0.474697 -2.353230 4.483503 0.029398 0.085397 -0.100766 -0.778790 -1.175638 4.228097 -0.524400 1.851354 -15.540974 0.000000 0.000000 0.000000 0.838308 -0.324297 1.693042 13.836753 5.785270 -4.394958 -8.963233 0.888455 -40.192750 2.516635 -33.336893 -5.229851 0.000000 0.000000 0.000000 -3.296587 0.866409 0.961425 3.610617 -11.233555 -1.856216 14.653770 -9.320545 -50.343917 -1.149035 29.703919 -4.984036 0.000000 0.000000 0.000000 
-1.792483 81.659035 4.890015 179.946265 0.155568 179.422417 -4.602240 0.452453 13.485839 6.417965 -7.712822 -20.609339 3.102321 -0.306405 24.290441 3.425980 -6.678522 -13.194182 0.000000 0.000000 0.000000 -0.895647 -0.068670 13.844699 -3.309917 1.368688 -20.582667 -1.878771 3.894913 25.093340 8.641912 2.594047 -11.101086 0.000000 0.000000 0.000000 0.406994 2.909335 3.349080 -4.340694 -0.394192 -4.150400 -0.441615 -2.304049 4.479124 0.056704 0.135972 -0.142263 -0.824868 -1.250317 4.189086 -0.540350 1.813214 -15.554038 0.000000 0.000000 0.000000 0.796906 -0.433692 1.681775 13.871889 5.905285 -4.461324 -9.047534 0.881507 -40.248587 2.440904 -33.405578 -5.163688 0.000000 0.000000 0.000000 -3.360426 0.884362 1.008503 3.583249 -11.240005 -1.829810 14.685815 -9.385363 -50.206296 -1.155534 29.624549 -5.039532 0.000000 0.000000 0.000000 
-1.779101 81.657005 4.904152 179.879930 -0.008882 179.427922 -4.664021 0.401610 13.481508 6.404193 -7.779505 -20.690496 3.210832 -0.390406 24.433738 3.388527 -6.700687 -13.199826 0.000000 0.000000 0.000000 -1.010868 -0.129344 13.861355 -3.312328 1.225335 -20.627011 -1.795588 3.568056 25.137253 8.766082 2.778932 -11.061731 0.000000 0.000000 0.000000 0.362080 2.827387 3.340409 -4.342770 -0.417826 -4.123116 -0.452629 -2.340252 4.473419 0.033987 0.098101 -0.112393 -0.778618 -1.192775 4.262342 -0.575635 1.757602 -15.535284 0.000000 0.000000 0.000000 0.859022 -0.310811 1.738706 13.934398 5.761503 -4.446282 -9.169777 1.016012 -40.237426 2.538863 -33.427280 -5.387781 0.000000 0.000000 0.000000 -3.285210 0.899477 0.987686 3.634760 -11.236307 -1.817843 14.555794 -9.385197 -50.092088 -1.214175 29.677653 -5.089632 0.000000 0.000000 0.000000 
-1.752164 81.647743 4.911605 179.875859 0.078596 179.423715 -4.688402 0.392794 13.480213 6.421797 -7.817737 -20.751237 3.271596 -0.376923 24.572070 3.385065 -6.607228 -13.238072 0.000000 0.000000 0.000000 -1.256229 -0.119239 13.844156 -3.115420 1.105302 -20.673436 -1.694157 3.493651 25.188167 8.795655 2.877374 -10.958027 0.000000 0.000000 0.000000 0.326167 2.876309 3.315338 -4.348873 -0.328802 -4.060740 -0.435241 -2.294466 4.460236 0.025924 0.161771 -0.184445 -0.742006 -1.166752 4.270615 -0.607031 1.775501 -15.562719 0.000000 0.000000 0.000000 0.866120 -0.312810 1.842505 13.933901 5.692450 -4.416953 -9.326167 0.992382 -40.299759 2.555109 -33.582141 -5.447598 0.000000 0.000000 0.000000 -3.272227 0.925845 1.109191 3.634169 -11.198005 -1.727574 14.488040 -9.481952 -50.000181 -1.351488 29.656234 -5.249476 0.000000 0.000000 0.000000 
-1.723178 81.646355 4.908113 179.937919 -0.021042 179.441528 -4.682780 0.345986 13.477020 6.482403 -7.867156 -20.813239 3.312032 -0.382384 24.683325 3.257748 -6.578654 -13.254617 0.000000 0.000000 0.000000 -1.193539 -0.198068 13.836404 -3.129078 0.893391 -20.702578 -1.540351 3.395878 25.230859 8.809510 2.968822 -10.910364 0.000000 0.000000 0.000000 0.283961 2.841584 3.263325 -4.351497 -0.307743 -4.019849 -0.382206 -2.320336 4.451329 0.074972 0.131555 -0.174391 -0.776294 -1.212560 4.324469 -0.603858 1.680997 -15.533069 0.000000 0.000000 0.000000 0.838583 -0.298504 1.836663 14.020842 5.699600 -4.432519 -9.444230 1.073647 -40.354960 2.575189 -33.594272 -5.608839 0.000000 0.000000 0.000000 -3.317205 0.943225 1.154348 3.641955 -11.200375 -1.795846 14.429137 -9.418413 -50.215086 -1.226839 29.763710 -5.153337 0.000000 0.000000 0.000000 
-1.692129 81.645615 4.893765 179.871748 -0.089310 179.458207 -4.734703 0.318859 13.471951 6.494247 -7.888232 -20.858189 3.399662 -0.382643 24.743861 3.119143 -6.544768 -13.263733 0.000000 0.000000 0.000000 -1.187412 -0.269793 13.821759 -3.217346 0.660777 -20.719915 -1.462354 3.341240 25.269680 8.817393 3.065402 -10.877553 0.000000 0.000000 0.000000 0.199075 2.829421 3.157108 -4.395101 -0.238736 -3.943478 -0.348111 -2.293857 4.456958 0.078216 0.152859 -0.169339 -0.749961 -1.281325 4.346481 -0.667673 1.531515 -15.490575 0.000000 0.000000 0.000000 0.867161 -0.295948 1.831605 13.924802 5.589558 -4.472293 -9.547531 1.074967 -40.421988 2.477253 -33.641865 -5.622918 0.000000 0.000000 0.000000 -3.281153 0.984101 1.206030 3.611746 -11.283940 -1.711228 14.317220 -9.463003 -50.185751 -1.355269 29.748486 -5.300488 0.000000 0.000000 0.000000 
-1.661274 81.643196 4.872381 179.866325 -0.080489 179.484148 -4.743678 0.313902 13.480758 6.511765 -7.874697 -20.887577 3.494571 -0.339385 24.758937 2.944160 -6.508368 -13.284236 0.000000 0.000000 0.000000 -1.273020 -0.279549 13.790516 -3.148412 0.542346 -20.734931 -1.361314 3.306570 25.287778 8.790725 3.135566 -10.813006 0.000000 0.000000 0.000000 0.176622 2.872506 3.072783 -4.453357 -0.138015 -3.849364 -0.332566 -2.270425 4.463817 0.074389 0.164458 -0.127353 -0.690183 -1.238964 4.246859 -0.673868 1.522039 -15.512604 0.000000 0.000000 0.000000 0.885651 -0.311997 1.828076 14.014322 5.515276 -4.414102 -9.735939 1.035087 -40.476002 2.570395 -33.661344 -5.782933 0.000000 0.000000 0.000000 -3.217887 0.860248 1.175165 3.629148 -11.357405 -1.757725 14.283674 -9.371360 -50.229338 -1.162020 29.920607 -5.098283 0.000000 0.000000 0.000000 
-1.628799 81.635521 4.841722 179.839017 -0.244876 179.508341 -4.754572 0.288815 13.490871 6.517656 -7.890265 -20.909118 3.583454 -0.333103 24.755403 2.676028 -6.548236 -13.305016 0.000000 0.000000 0.000000 -1.303225 -0.339342 13.773952 -3.123288 0.365640 -20.716614 -1.280943 3.221380 25.304695 8.764047 3.200489 -10.817628 0.000000 0.000000 0.000000 0.182102 2.841383 2.987932 -4.532912 -0.097059 -3.752851 -0.353237 -2.293029 4.431968 0.012896 0.149436 -0.196446 -0.647773 -1.191918 4.225584 -0.763158 1.476427 -15.413370 0.000000 0.000000 0.000000 0.977770 -0.317972 1.889269 14.156066 5.447484 -4.384227 -9.903305 1.074252 -40.718569 2.590694 -33.724383 -5.919175 0.000000 0.000000 0.000000 -3.112786 0.857307 1.182139 3.670000 -11.499307 -1.882045 14.349073 -9.509363 -50.116820 -1.138163 30.079757 -5.062640 0.000000 0.000000 0.000000 
